<?xml version="1.0" encoding="UTF-8" standalone="no"?>
<svg
   width="28"
   height="28"
   viewBox="0 0 28 28"
   fill="none"
   version="1.1"
   id="svg1"
   xmlns="http://www.w3.org/2000/svg"
   xmlns:svg="http://www.w3.org/2000/svg">
  <defs
     id="defs1" />
  <path
     d="m 6.8633,20.74706 c 0.914,0.90527 2.1621,1.08984 3.7705,1.08984 h 6.75 c 1.59081,0 2.83886,-0.18457 3.74413,-1.08984 0.90527,-0.89649 1.07227,-2.13574 1.07227,-3.7266 v -6.6972 c 0,-1.6172 -0.167,-2.8565 -1.07227,-3.753 -0.90527,-0.9052 -2.15332,-1.081 -3.76173,-1.081 h -6.7324 c -1.6084,0 -2.8652,0.1758 -3.7705,1.081 -0.8965,0.9053 -1.0635,2.1358 -1.0635,3.753 v 6.6709 c 0,1.61716 0.167,2.85641 1.0635,3.7529 z m 0.6855,-3.5068 v -7.1631 c 0,-0.9141 0.1143,-1.7403 0.5977,-2.2237 0.4922,-0.4921 1.3271,-0.6152 2.2412,-0.6152 h 7.2158 c 0.91408,0 1.75783,0.1318 2.24123,0.6152 0.48339,0.4834 0.60644,1.3096 0.60644,2.2237 v 7.1455 c 0,0.93162 -0.12305,1.76659 -0.60644,2.24998 -0.4834,0.4834 -1.32715,0.60645 -2.25883,0.60645 h -7.1982 c -0.9141,0 -1.749,-0.12305 -2.2412,-0.60645 C 7.6631,18.98046 7.5488,18.15428 7.5488,17.24026 Z m 6.4336,0.94039 c 0.4571,0 0.791,-0.32519 0.791,-0.76465 v -4.13964 l -0.0791,-1.8018 0.7911,0.9844 0.9843,1.0283 c 0.1231,0.1319 0.3164,0.2198 0.5274,0.2198 0.4218,0 0.7207,-0.2989 0.7207,-0.7032 0,-0.2109 -0.0616,-0.3867 -0.2022,-0.5361 l -2.9092,-2.9355 c -0.1933,-0.2022 -0.3779,-0.2989 -0.624,-0.2989 -0.2461,0 -0.4394,0.0967 -0.6328,0.2989 l -2.8916,2.9355 c -0.1494,0.1494 -0.2197,0.3252 -0.2197,0.5361 0,0.4043 0.3164,0.7032 0.7295,0.7032 0.2109,0 0.4043,-0.0791 0.5361,-0.2198 l 0.9756,-1.0195 0.7998,-1.002 -0.0791,1.8106 V 17.416 c 0,0.43946 0.334,0.76465 0.7822,0.76465 z"
     fill="#1c1c1e"
     id="path1" />
</svg>
