<?xml version="1.0" encoding="UTF-8" standalone="no"?>
<svg
   width="28"
   height="28"
   viewBox="0 0 28 28"
   fill="none"
   version="1.1"
   id="svg1"
   xmlns="http://www.w3.org/2000/svg"
   xmlns:svg="http://www.w3.org/2000/svg">
  <defs
     id="defs1" />
  <path
     d="m 21.08398,20.79978 c 0.90527,-0.914 1.08984,-2.1621 1.08984,-3.7705 v -6.75 c 0,-1.59081 -0.18457,-2.83886 -1.08984,-3.74413 -0.89649,-0.90527 -2.13574,-1.07227 -3.7266,-1.07227 h -6.6972 c -1.6172,0 -2.8565,0.167 -3.753,1.07227 -0.9052,0.90527 -1.081,2.15332 -1.081,3.76173 v 6.7324 c 0,1.6084 0.1758,2.8652 1.081,3.7705 0.9053,0.8965 2.1358,1.0635 3.753,1.0635 h 6.6709 c 1.61716,0 2.85641,-0.167 3.7529,-1.0635 z m -3.5068,-0.6855 h -7.1631 c -0.9141,0 -1.7403,-0.1143 -2.2237,-0.5977 -0.4921,-0.4922 -0.6152,-1.3271 -0.6152,-2.2412 v -7.2158 c 0,-0.91408 0.1318,-1.75783 0.6152,-2.24123 0.4834,-0.48339 1.3096,-0.60644 2.2237,-0.60644 h 7.1455 c 0.93162,0 1.76659,0.12305 2.24998,0.60644 0.4834,0.4834 0.60645,1.32715 0.60645,2.25883 v 7.1982 c 0,0.9141 -0.12305,1.749 -0.60645,2.2412 -0.49218,0.4834 -1.31836,0.5977 -2.23238,0.5977 z m 0.94039,-6.4336 c 0,-0.4571 -0.32519,-0.791 -0.76465,-0.791 h -4.13964 l -1.8018,0.0791 0.9844,-0.7911 1.0283,-0.9843 c 0.1319,-0.1231 0.2198,-0.3164 0.2198,-0.5274 0,-0.4218 -0.2989,-0.7207 -0.7032,-0.7207 -0.2109,0 -0.3867,0.0616 -0.5361,0.2022 l -2.9355,2.9092 c -0.2022,0.1933 -0.2989,0.3779 -0.2989,0.624 0,0.2461 0.0967,0.4394 0.2989,0.6328 l 2.9355,2.8916 c 0.1494,0.1494 0.3252,0.2197 0.5361,0.2197 0.4043,0 0.7032,-0.3164 0.7032,-0.7295 0,-0.2109 -0.0791,-0.4043 -0.2198,-0.5361 l -1.0195,-0.9756 -1.002,-0.7998 1.8106,0.0791 h 4.13964 c 0.43946,0 0.76465,-0.334 0.76465,-0.7822 z"
     fill="#1c1c1e"
     id="path1" />
</svg>
