<svg width="12" height="14" viewBox="0 0 12 14" fill="none" xmlns="http://www.w3.org/2000/svg">
<path d="M2.62939 13.7217H9.37061C10.0265 13.7217 10.5174 13.5545 10.8433 13.2202C11.1733 12.8901 11.3384 12.395 11.3384 11.7349V5.97119C11.3384 5.69613 11.3236 5.46549 11.2939 5.2793C11.2643 5.0931 11.2051 4.92383 11.1162 4.77148C11.0316 4.61491 10.9046 4.44987 10.7354 4.27637L7.23779 0.715332C7.07699 0.550293 6.92041 0.425456 6.76807 0.34082C6.61572 0.251953 6.44857 0.192708 6.2666 0.163086C6.08887 0.129232 5.88151 0.112305 5.64453 0.112305H2.62939C1.97347 0.112305 1.48047 0.27946 1.15039 0.61377C0.824544 0.948079 0.661621 1.44531 0.661621 2.10547V11.7349C0.661621 12.3993 0.824544 12.8965 1.15039 13.2266C1.48047 13.5566 1.97347 13.7217 2.62939 13.7217ZM2.67383 12.6997C2.34798 12.6997 2.10042 12.6151 1.93115 12.4458C1.76611 12.2765 1.68359 12.0332 1.68359 11.7158V2.12451C1.68359 1.81136 1.76611 1.56803 1.93115 1.39453C2.10042 1.22103 2.3501 1.13428 2.68018 1.13428H5.50488V4.82227C5.50488 5.22005 5.60433 5.51839 5.80322 5.71729C6.00212 5.91618 6.30046 6.01562 6.69824 6.01562H10.3164V11.7158C10.3164 12.0332 10.2318 12.2765 10.0625 12.4458C9.89746 12.6151 9.6499 12.6997 9.31982 12.6997H2.67383ZM6.8125 5.05713C6.68555 5.05713 6.59456 5.02962 6.53955 4.97461C6.48877 4.9196 6.46338 4.82861 6.46338 4.70166V1.33105L10.1196 5.05713H6.8125Z" fill="black"/>
</svg>
