<svg width="16" height="12" viewBox="0 0 16 12" fill="none" xmlns="http://www.w3.org/2000/svg">
<path d="M1.19531 2.21631V3.11133H14.8047V2.21631H1.19531ZM2.50928 11.7632H13.4907C14.1593 11.7632 14.6587 11.5981 14.9888 11.2681C15.3188 10.9422 15.4839 10.4535 15.4839 9.80176V2.04492C15.4839 1.39323 15.3188 0.902344 14.9888 0.572266C14.6587 0.242188 14.1593 0.0771484 13.4907 0.0771484H2.50928C1.84489 0.0771484 1.34554 0.242188 1.01123 0.572266C0.681152 0.898112 0.516113 1.389 0.516113 2.04492V9.80176C0.516113 10.4535 0.681152 10.9422 1.01123 11.2681C1.34554 11.5981 1.84489 11.7632 2.50928 11.7632ZM2.52197 10.7412C2.20459 10.7412 1.96126 10.6587 1.79199 10.4937C1.62272 10.3244 1.53809 10.0747 1.53809 9.74463V2.10205C1.53809 1.77197 1.62272 1.5223 1.79199 1.35303C1.96126 1.18376 2.20459 1.09912 2.52197 1.09912H13.478C13.7912 1.09912 14.0324 1.18376 14.2017 1.35303C14.3752 1.5223 14.4619 1.77197 14.4619 2.10205V9.74463C14.4619 10.0747 14.3752 10.3244 14.2017 10.4937C14.0324 10.6587 13.7912 10.7412 13.478 10.7412H2.52197ZM3.24561 9.18604C3.24561 9.35107 3.29639 9.48438 3.39795 9.58594C3.50374 9.6875 3.64128 9.73828 3.81055 9.73828H12.2085C12.3778 9.73828 12.5132 9.6875 12.6147 9.58594C12.7205 9.48438 12.7734 9.35107 12.7734 9.18604V8.23389C12.7734 8.06885 12.7205 7.93555 12.6147 7.83398C12.5132 7.73242 12.3778 7.68164 12.2085 7.68164H3.81055C3.64128 7.68164 3.50374 7.73242 3.39795 7.83398C3.29639 7.93555 3.24561 8.06885 3.24561 8.23389V9.18604Z" fill="black"/>
</svg>
