<svg width="28" height="28" viewBox="0 0 28 28" fill="none" xmlns="http://www.w3.org/2000/svg">
<path d="M25.0039 9.51477L16.417 5.58606C15.4941 5.16418 14.7383 4.97082 14 4.9884C13.2617 4.97082 12.5059 5.16418 11.583 5.58606L2.99609 9.51477C2.38086 9.78723 2.06445 10.297 2.06445 10.8156C2.06445 11.3429 2.38086 11.8439 2.99609 12.1163L6.39746 13.6544L12.1016 10.9913C12.0664 10.9298 12.0488 10.8771 12.0488 10.8156C12.0488 10.1739 13.0244 9.71692 14.0264 9.71692C15.0371 9.71692 16.0039 10.1739 16.0039 10.8156C16.0039 11.4747 15.0371 11.9406 14.0264 11.9406C13.7188 11.9406 13.4023 11.8966 13.1211 11.8087L7.76855 14.3048L11.583 16.0538C12.5059 16.4757 13.2617 16.6603 14 16.6515C14.7383 16.6603 15.4941 16.4757 16.417 16.0538L25.0039 12.1163C25.6191 11.8351 25.9355 11.3429 25.9355 10.8156C25.9355 10.297 25.6191 9.78723 25.0039 9.51477ZM7.7334 15.7111V20.8527C9.2627 21.7667 11.4336 22.3204 14 22.3204C19.1592 22.3204 22.7012 20.0968 22.7012 17.3546V14.5861L16.9531 17.2228C15.8896 17.7062 14.9229 17.9523 14 17.9435C13.0859 17.9523 12.1104 17.7062 11.0469 17.2228L7.7334 15.7111ZM5.29883 14.5948V17.3546C5.29883 18.1193 5.70312 19.0245 6.43262 19.798V15.1134L5.29883 14.5948ZM5.65918 22.9357V25.212C5.65918 25.9591 6.15137 26.4513 6.89844 26.4513H7.26758C8.01465 26.4513 8.49805 25.9591 8.49805 25.212V22.9357C8.49805 22.3556 8.20801 21.9337 7.7334 21.7667V20.8527C7.22363 20.545 6.78418 20.1935 6.43262 19.798V21.7667C5.95801 21.9249 5.65918 22.3556 5.65918 22.9357Z" fill="#2B79DB"/>
</svg>
