<svg width="22" height="16" viewBox="0 0 22 16" fill="none" xmlns="http://www.w3.org/2000/svg">
<path d="M4.33789 6.74023H17.6621C18.5498 6.74023 19.3496 6.94238 20.0439 7.30273L17.873 2.21387C17.293 0.851562 16.1152 0.0957031 14.542 0.0957031H7.45801C5.87598 0.0957031 4.70703 0.851562 4.12695 2.21387L1.94727 7.29395C2.6416 6.94238 3.4502 6.74023 4.33789 6.74023ZM4.33789 15.2305H17.6621C19.8066 15.2305 21.2832 13.7627 21.2832 11.6357C21.2832 9.5 19.8066 8.03223 17.6621 8.03223H4.33789C2.18457 8.03223 0.708008 9.5 0.708008 11.6357C0.708008 13.7627 2.18457 15.2305 4.33789 15.2305ZM8.3457 12.5234V10.7305C8.3457 10.4316 8.5918 10.1855 8.89941 10.1855C9.20703 10.1855 9.45312 10.4316 9.45312 10.7305V12.5234C9.45312 12.8398 9.20703 13.0859 8.89941 13.0859C8.5918 13.0859 8.3457 12.8398 8.3457 12.5234ZM10.4463 12.5234V10.7305C10.4463 10.4316 10.6924 10.1855 11 10.1855C11.3076 10.1855 11.5537 10.4316 11.5537 10.7305V12.5234C11.5537 12.8398 11.3076 13.0859 11 13.0859C10.6924 13.0859 10.4463 12.8398 10.4463 12.5234ZM12.5469 12.5234V10.7305C12.5469 10.4316 12.793 10.1855 13.1006 10.1855C13.4082 10.1855 13.6543 10.4316 13.6543 10.7305V12.5234C13.6543 12.8398 13.4082 13.0859 13.1006 13.0859C12.793 13.0859 12.5469 12.8398 12.5469 12.5234ZM14.6475 12.5234V10.7305C14.6475 10.4316 14.8936 10.1855 15.2012 10.1855C15.5088 10.1855 15.7549 10.4316 15.7549 10.7305V12.5234C15.7549 12.8398 15.5088 13.0859 15.2012 13.0859C14.8936 13.0859 14.6475 12.8398 14.6475 12.5234ZM16.748 12.5234V10.7305C16.748 10.4316 16.9941 10.1855 17.3105 10.1855C17.6094 10.1855 17.8555 10.4316 17.8555 10.7305V12.5234C17.8555 12.8398 17.6094 13.0859 17.3105 13.0859C16.9941 13.0859 16.748 12.8398 16.748 12.5234Z" fill="#2B79DB"/>
</svg>
